<?xml version="1.0" encoding="UTF-8" standalone="no"?>
<!-- Created with Inkscape (http://www.inkscape.org/) -->
<svg
   xmlns:dc="http://purl.org/dc/elements/1.1/"
   xmlns:cc="http://creativecommons.org/ns#"
   xmlns:rdf="http://www.w3.org/1999/02/22-rdf-syntax-ns#"
   xmlns:svg="http://www.w3.org/2000/svg"
   xmlns="http://www.w3.org/2000/svg"
   xmlns:sodipodi="http://sodipodi.sourceforge.net/DTD/sodipodi-0.dtd"
   xmlns:inkscape="http://www.inkscape.org/namespaces/inkscape"
   width="540"
   height="320"
   id="svg2"
   sodipodi:version="0.32"
   inkscape:version="0.46"
   version="1.0"
   sodipodi:docbase="/home/omegatron/Wikipedia"
   sodipodi:docname="XLR5_pinouts.svg"
   inkscape:output_extension="org.inkscape.output.svg.inkscape"
   inkscape:export-filename="/home/philip/Desktop/WHP/images/XLR5_pinouts.png"
   inkscape:export-xdpi="88.19973"
   inkscape:export-ydpi="88.19973"
   sodipodi:modified="true">
  <defs
     id="defs4">
    <inkscape:perspective
       sodipodi:type="inkscape:persp3d"
       inkscape:vp_x="0 : 160 : 1"
       inkscape:vp_y="0 : 1000 : 0"
       inkscape:vp_z="540 : 160 : 1"
       inkscape:persp3d-origin="270 : 106.66667 : 1"
       id="perspective3286" />
  </defs>
  <sodipodi:namedview
     id="base"
     pagecolor="#ffffff"
     bordercolor="#666666"
     borderopacity="1.0"
     gridtolerance="10000"
     guidetolerance="10"
     objecttolerance="10"
     inkscape:pageopacity="0.0"
     inkscape:pageshadow="2"
     inkscape:zoom="1.4142136"
     inkscape:cx="238.94644"
     inkscape:cy="236.50919"
     inkscape:document-units="px"
     inkscape:current-layer="layer1"
     width="540px"
     height="320px"
     showgrid="true"
     inkscape:object-nodes="true"
     inkscape:grid-points="true"
     inkscape:window-width="1280"
     inkscape:window-height="947"
     inkscape:window-x="0"
     inkscape:window-y="25" />
  <metadata
     id="metadata7">
    <rdf:RDF>
      <cc:Work
         rdf:about="">
        <dc:format>image/svg+xml</dc:format>
        <dc:type
           rdf:resource="http://purl.org/dc/dcmitype/StillImage" />
        <dc:title>XLR5 pinout</dc:title>
        <dc:creator>
          <cc:Agent>
            <dc:title>Philip Withnall</dc:title>
          </cc:Agent>
        </dc:creator>
        <dc:language>English</dc:language>
        <cc:license
           rdf:resource="http://creativecommons.org/licenses/by-sa/3.0/" />
      </cc:Work>
      <cc:License
         rdf:about="http://creativecommons.org/licenses/by-sa/3.0/">
        <cc:permits
           rdf:resource="http://creativecommons.org/ns#Reproduction" />
        <cc:permits
           rdf:resource="http://creativecommons.org/ns#Distribution" />
        <cc:requires
           rdf:resource="http://creativecommons.org/ns#Notice" />
        <cc:requires
           rdf:resource="http://creativecommons.org/ns#Attribution" />
        <cc:permits
           rdf:resource="http://creativecommons.org/ns#DerivativeWorks" />
        <cc:requires
           rdf:resource="http://creativecommons.org/ns#ShareAlike" />
      </cc:License>
    </rdf:RDF>
  </metadata>
  <g
     inkscape:label="Layer 1"
     inkscape:groupmode="layer"
     id="layer1"
     transform="translate(-27.5, -73.744)">
    <text
       xml:space="preserve"
       style="font-size:36px;font-style:normal;font-variant:normal;font-weight:normal;font-stretch:normal;text-align:start;line-height:125%;text-anchor:start;fill:#000000;fill-opacity:1;stroke:none;stroke-width:1px;stroke-linecap:butt;stroke-linejoin:miter;stroke-opacity:1;font-family:Nimbus Sans L"
       x="91.833504"
       y="117.622"
       id="text2184"
       sodipodi:linespacing="125%"><tspan
         sodipodi:role="line"
         id="tspan2186"
         x="91.833504"
         y="117.622">Female</tspan></text>
    <text
       sodipodi:linespacing="125%"
       id="text2216"
       y="117.622"
       x="386.12701"
       style="font-size:36px;font-style:normal;font-variant:normal;font-weight:normal;font-stretch:normal;text-align:start;line-height:125%;text-anchor:start;fill:#000000;fill-opacity:1;stroke:none;stroke-width:1px;stroke-linecap:butt;stroke-linejoin:miter;stroke-opacity:1;font-family:Nimbus Sans L"
       xml:space="preserve"><tspan
         y="117.622"
         x="386.12701"
         id="tspan2218"
         sodipodi:role="line">Male</tspan></text>
    <g
       id="g4211">
      <path
         transform="matrix(3,0,0,3,-73,-55.878)"
         d="M 208,103 A 41,41 0 1 1 126,103 A 41,41 0 1 1 208,103 z"
         sodipodi:ry="41"
         sodipodi:rx="41"
         sodipodi:cy="103"
         sodipodi:cx="167"
         id="path13294"
         style="fill:#a0a0a0;fill-opacity:1;stroke:#808080;stroke-width:1;stroke-linecap:round;stroke-linejoin:round;stroke-miterlimit:4;stroke-dasharray:none;stroke-opacity:1"
         sodipodi:type="arc" />
      <path
         sodipodi:nodetypes="cccccsssc"
         id="rect4354"
         d="M 428,142.122 C 451.31513,142.122 472.9442,149.32514 490.8125,161.622 L 500.5,161.622 C 507.5,161.622 513.5,167.622 513.5,174.622 L 513.5,182.34075 C 529.43915,201.55978 539,226.2213 539,253.122 C 539,314.394 489.272,364.122 428,364.122 C 366.728,364.122 317,314.394 317,253.122 C 317,191.85 366.728,142.122 428,142.122 z"
         style="fill:#202020;fill-opacity:1;stroke:#808080;stroke-width:3;stroke-linecap:round;stroke-linejoin:round;stroke-miterlimit:4;stroke-dasharray:none;stroke-opacity:1" />
      <path
         transform="matrix(3,0,0,3,-73,-55.878)"
         d="M 197,103 A 30,30 0 1 1 137,103 A 30,30 0 1 1 197,103 z"
         sodipodi:ry="30"
         sodipodi:rx="30"
         sodipodi:cy="103"
         sodipodi:cx="167"
         id="path18142"
         style="fill:#101010;fill-opacity:1;stroke:#000000;stroke-width:1;stroke-linecap:round;stroke-linejoin:round;stroke-miterlimit:4;stroke-dasharray:none;stroke-opacity:1"
         sodipodi:type="arc" />
      <text
         sodipodi:linespacing="125%"
         id="text46312"
         y="295.84991"
         x="418.20801"
         style="font-size:36px;font-style:normal;font-variant:normal;font-weight:normal;font-stretch:normal;text-align:start;line-height:125%;text-anchor:start;fill:#d0d0d0;fill-opacity:0.94117599;stroke:none;stroke-width:1px;stroke-linecap:butt;stroke-linejoin:miter;stroke-opacity:1;font-family:Nimbus Sans L"
         xml:space="preserve"><tspan
           y="295.84991"
           x="418.20801"
           id="tspan46314"
           sodipodi:role="line">3</tspan></text>
      <text
         sodipodi:linespacing="125%"
         id="text45335"
         y="232.12201"
         x="359.96616"
         style="font-size:36px;font-style:normal;font-variant:normal;font-weight:normal;font-stretch:normal;text-align:start;line-height:125%;text-anchor:start;fill:#d0d0d0;fill-opacity:0.94117599;stroke:none;stroke-width:1px;stroke-linecap:butt;stroke-linejoin:miter;stroke-opacity:1;font-family:Nimbus Sans L"
         xml:space="preserve"><tspan
           y="232.12201"
           x="359.96616"
           id="tspan45337"
           sodipodi:role="line">1</tspan></text>
      <text
         xml:space="preserve"
         style="font-size:36px;font-style:normal;font-variant:normal;font-weight:normal;font-stretch:normal;text-align:start;line-height:125%;text-anchor:start;fill:#d0d0d0;fill-opacity:0.94117599;stroke:none;stroke-width:1px;stroke-linecap:butt;stroke-linejoin:miter;stroke-opacity:1;font-family:Nimbus Sans L"
         x="384.84583"
         y="271.01288"
         id="text46308"
         sodipodi:linespacing="125%"><tspan
           sodipodi:role="line"
           id="tspan46310"
           x="384.84583"
           y="271.01288">2</tspan></text>
      <text
         sodipodi:linespacing="125%"
         id="text3455"
         y="232.12201"
         x="474.0018"
         style="font-size:36px;font-style:normal;font-variant:normal;font-weight:normal;font-stretch:normal;text-align:start;line-height:125%;text-anchor:start;fill:#d0d0d0;fill-opacity:0.94117599;stroke:none;stroke-width:1px;stroke-linecap:butt;stroke-linejoin:miter;stroke-opacity:1;font-family:Nimbus Sans L"
         xml:space="preserve"><tspan
           y="232.12201"
           x="474.0018"
           id="tspan3457"
           sodipodi:role="line">5</tspan></text>
      <text
         xml:space="preserve"
         style="font-size:36px;font-style:normal;font-variant:normal;font-weight:normal;font-stretch:normal;text-align:start;line-height:125%;text-anchor:start;fill:#d0d0d0;fill-opacity:0.94117599;stroke:none;stroke-width:1px;stroke-linecap:butt;stroke-linejoin:miter;stroke-opacity:1;font-family:Nimbus Sans L"
         x="455.06213"
         y="271.01288"
         id="text3459"
         sodipodi:linespacing="125%"><tspan
           sodipodi:role="line"
           id="tspan3461"
           x="455.06213"
           y="271.01288">4</tspan></text>
      <path
         transform="matrix(-1.9230769,0,0,1.9230769,375.1154,14.237385)"
         d="M -21.5,157.5 A 6,6 0 1 1 -33.5,157.5 A 6,6 0 1 1 -21.5,157.5 z"
         sodipodi:ry="6"
         sodipodi:rx="6"
         sodipodi:cy="157.5"
         sodipodi:cx="-27.5"
         id="path2285"
         style="fill:#b0b0b0;fill-opacity:1;stroke:#505050;stroke-width:1;stroke-linecap:round;stroke-linejoin:round;stroke-miterlimit:4;stroke-dasharray:none;stroke-opacity:1"
         sodipodi:type="arc" />
      <path
         transform="matrix(-1.9230769,0,0,1.9230769,325.30989,-16.256519)"
         d="M -21.5,157.5 A 6,6 0 1 1 -33.5,157.5 A 6,6 0 1 1 -21.5,157.5 z"
         sodipodi:ry="6"
         sodipodi:rx="6"
         sodipodi:cy="157.5"
         sodipodi:cx="-27.5"
         id="path2281"
         style="fill:#b0b0b0;fill-opacity:1;stroke:#505050;stroke-width:1;stroke-linecap:round;stroke-linejoin:round;stroke-miterlimit:4;stroke-dasharray:none;stroke-opacity:1"
         sodipodi:type="arc" />
      <path
         transform="matrix(-1.9230769,0,0,1.9230769,307.08155,-59.224141)"
         d="M -21.5,157.5 A 6,6 0 1 1 -33.5,157.5 A 6,6 0 1 1 -21.5,157.5 z"
         sodipodi:ry="6"
         sodipodi:rx="6"
         sodipodi:cy="157.5"
         sodipodi:cx="-27.5"
         id="path3453"
         style="fill:#b0b0b0;fill-opacity:1;stroke:#505050;stroke-width:1;stroke-linecap:round;stroke-linejoin:round;stroke-miterlimit:4;stroke-dasharray:none;stroke-opacity:1"
         sodipodi:type="arc" />
      <path
         transform="matrix(1.9230769,0,0,1.9230769,530.69011,-16.256519)"
         d="M -21.5,157.5 A 6,6 0 1 1 -33.5,157.5 A 6,6 0 1 1 -21.5,157.5 z"
         sodipodi:ry="6"
         sodipodi:rx="6"
         sodipodi:cy="157.5"
         sodipodi:cx="-27.5"
         id="path3463"
         style="fill:#b0b0b0;fill-opacity:1;stroke:#505050;stroke-width:1;stroke-linecap:round;stroke-linejoin:round;stroke-miterlimit:4;stroke-dasharray:none;stroke-opacity:1"
         sodipodi:type="arc" />
      <path
         transform="matrix(1.9230769,0,0,1.9230769,548.91845,-59.22414)"
         d="M -21.5,157.5 A 6,6 0 1 1 -33.5,157.5 A 6,6 0 1 1 -21.5,157.5 z"
         sodipodi:ry="6"
         sodipodi:rx="6"
         sodipodi:cy="157.5"
         sodipodi:cx="-27.5"
         id="path3465"
         style="fill:#b0b0b0;fill-opacity:1;stroke:#505050;stroke-width:1;stroke-linecap:round;stroke-linejoin:round;stroke-miterlimit:4;stroke-dasharray:none;stroke-opacity:1"
         sodipodi:type="arc" />
    </g>
    <g
       id="g4187">
      <path
         id="path10360"
         d="M 155,142.122 C 216.272,142.122 266,191.85 266,253.122 C 266,314.394 216.272,364.122 155,364.122 C 93.728,364.122 44,314.394 44,253.122 C 44,224.61415 54.81623,198.62984 72.5,178.96575 L 72.5,170.71575 C 72.5,167.358 74.82314,164.622 77.65625,164.622 L 88.0625,164.622 C 106.68344,150.50216 129.84608,142.122 155,142.122 z"
         style="fill:#a0a0a0;fill-opacity:1;stroke:#808080;stroke-width:3;stroke-linecap:round;stroke-linejoin:round;stroke-miterlimit:4;stroke-dasharray:none;stroke-opacity:1" />
      <path
         sodipodi:nodetypes="csscc"
         id="path4356"
         d="M 91.34375,189.5595 C 56.21468,224.68857 56.21468,281.74293 91.34375,316.872 C 126.47282,352.00107 183.52718,352.00107 218.65625,316.872 C 253.78532,281.74293 253.78535,224.68857 218.65625,189.5595 L 91.34375,189.5595 z"
         style="fill:#3080b0;fill-opacity:1;stroke:#000000;stroke-width:3;stroke-linecap:round;stroke-linejoin:round;stroke-miterlimit:4;stroke-dasharray:none;stroke-opacity:1" />
      <path
         transform="matrix(-2.2307692,0,0,2.2307692,93.653857,-34.223917)"
         d="M -21.5,157.5 A 6,6 0 1 1 -33.5,157.5 A 6,6 0 1 1 -21.5,157.5 z"
         sodipodi:ry="6"
         sodipodi:rx="6"
         sodipodi:cy="157.5"
         sodipodi:cx="-27.5"
         id="path3958"
         style="fill:#000000;fill-opacity:1;stroke:#202020;stroke-width:1;stroke-linecap:round;stroke-linejoin:round;stroke-miterlimit:4;stroke-dasharray:none;stroke-opacity:1"
         sodipodi:type="arc" />
      <path
         transform="matrix(-1.9230769,0,0,1.9230769,102.11544,14.237463)"
         d="M -21.5,157.5 A 6,6 0 1 1 -33.5,157.5 A 6,6 0 1 1 -21.5,157.5 z"
         sodipodi:ry="6"
         sodipodi:rx="6"
         sodipodi:cy="157.5"
         sodipodi:cx="-27.5"
         id="path3948"
         style="fill:#000000;fill-opacity:1;stroke:#a0a0a0;stroke-width:1;stroke-linecap:round;stroke-linejoin:round;stroke-miterlimit:4;stroke-dasharray:none;stroke-opacity:1"
         sodipodi:type="arc" />
      <path
         transform="matrix(-2.2307692,0,0,2.2307692,43.848857,-64.717917)"
         d="M -21.5,157.5 A 6,6 0 1 1 -33.5,157.5 A 6,6 0 1 1 -21.5,157.5 z"
         sodipodi:ry="6"
         sodipodi:rx="6"
         sodipodi:cy="157.5"
         sodipodi:cx="-27.5"
         id="path3960"
         style="fill:#000000;fill-opacity:1;stroke:#202020;stroke-width:1;stroke-linecap:round;stroke-linejoin:round;stroke-miterlimit:4;stroke-dasharray:none;stroke-opacity:1"
         sodipodi:type="arc" />
      <path
         transform="matrix(-1.9230769,0,0,1.9230769,52.309927,-16.256447)"
         d="M -21.5,157.5 A 6,6 0 1 1 -33.5,157.5 A 6,6 0 1 1 -21.5,157.5 z"
         sodipodi:ry="6"
         sodipodi:rx="6"
         sodipodi:cy="157.5"
         sodipodi:cx="-27.5"
         id="path3950"
         style="fill:#000000;fill-opacity:1;stroke:#a0a0a0;stroke-width:1;stroke-linecap:round;stroke-linejoin:round;stroke-miterlimit:4;stroke-dasharray:none;stroke-opacity:1"
         sodipodi:type="arc" />
      <path
         transform="matrix(-2.2307692,0,0,2.2307692,25.619857,-107.68591)"
         d="M -21.5,157.5 A 6,6 0 1 1 -33.5,157.5 A 6,6 0 1 1 -21.5,157.5 z"
         sodipodi:ry="6"
         sodipodi:rx="6"
         sodipodi:cy="157.5"
         sodipodi:cx="-27.5"
         id="path3962"
         style="fill:#000000;fill-opacity:1;stroke:#202020;stroke-width:1;stroke-linecap:round;stroke-linejoin:round;stroke-miterlimit:4;stroke-dasharray:none;stroke-opacity:1"
         sodipodi:type="arc" />
      <path
         transform="matrix(-1.9230769,0,0,1.9230769,34.081587,-59.224067)"
         d="M -21.5,157.5 A 6,6 0 1 1 -33.5,157.5 A 6,6 0 1 1 -21.5,157.5 z"
         sodipodi:ry="6"
         sodipodi:rx="6"
         sodipodi:cy="157.5"
         sodipodi:cx="-27.5"
         id="path3952"
         style="fill:#000000;fill-opacity:1;stroke:#a0a0a0;stroke-width:1;stroke-linecap:round;stroke-linejoin:round;stroke-miterlimit:4;stroke-dasharray:none;stroke-opacity:1"
         sodipodi:type="arc" />
      <path
         transform="matrix(2.2307692,0,0,2.2307692,266.15215,-64.717917)"
         d="M -21.5,157.5 A 6,6 0 1 1 -33.5,157.5 A 6,6 0 1 1 -21.5,157.5 z"
         sodipodi:ry="6"
         sodipodi:rx="6"
         sodipodi:cy="157.5"
         sodipodi:cx="-27.5"
         id="path3964"
         style="fill:#000000;fill-opacity:1;stroke:#202020;stroke-width:1;stroke-linecap:round;stroke-linejoin:round;stroke-miterlimit:4;stroke-dasharray:none;stroke-opacity:1"
         sodipodi:type="arc" />
      <path
         transform="matrix(1.9230769,0,0,1.9230769,257.69014,-16.256447)"
         d="M -21.5,157.5 A 6,6 0 1 1 -33.5,157.5 A 6,6 0 1 1 -21.5,157.5 z"
         sodipodi:ry="6"
         sodipodi:rx="6"
         sodipodi:cy="157.5"
         sodipodi:cx="-27.5"
         id="path3954"
         style="fill:#000000;fill-opacity:1;stroke:#a0a0a0;stroke-width:1;stroke-linecap:round;stroke-linejoin:round;stroke-miterlimit:4;stroke-dasharray:none;stroke-opacity:1"
         sodipodi:type="arc" />
      <path
         transform="matrix(2.2307692,0,0,2.2307692,284.38015,-107.68591)"
         d="M -21.5,157.5 A 6,6 0 1 1 -33.5,157.5 A 6,6 0 1 1 -21.5,157.5 z"
         sodipodi:ry="6"
         sodipodi:rx="6"
         sodipodi:cy="157.5"
         sodipodi:cx="-27.5"
         id="path3966"
         style="fill:#000000;fill-opacity:1;stroke:#202020;stroke-width:1;stroke-linecap:round;stroke-linejoin:round;stroke-miterlimit:4;stroke-dasharray:none;stroke-opacity:1"
         sodipodi:type="arc" />
      <path
         transform="matrix(1.9230769,0,0,1.9230769,275.91848,-59.224067)"
         d="M -21.5,157.5 A 6,6 0 1 1 -33.5,157.5 A 6,6 0 1 1 -21.5,157.5 z"
         sodipodi:ry="6"
         sodipodi:rx="6"
         sodipodi:cy="157.5"
         sodipodi:cx="-27.5"
         id="path3956"
         style="fill:#000000;fill-opacity:1;stroke:#a0a0a0;stroke-width:1;stroke-linecap:round;stroke-linejoin:round;stroke-miterlimit:4;stroke-dasharray:none;stroke-opacity:1"
         sodipodi:type="arc" />
      <text
         sodipodi:linespacing="125%"
         id="text4108"
         y="295.84991"
         x="145.20805"
         style="font-size:36px;font-style:normal;font-variant:normal;font-weight:normal;font-stretch:normal;text-align:start;line-height:125%;text-anchor:start;fill:#d0d0d0;fill-opacity:0.94117599;stroke:none;stroke-width:1px;stroke-linecap:butt;stroke-linejoin:miter;stroke-opacity:1;font-family:Nimbus Sans L"
         xml:space="preserve"><tspan
           y="295.84991"
           x="145.20805"
           id="tspan4110"
           sodipodi:role="line">3</tspan></text>
      <text
         sodipodi:linespacing="125%"
         id="text4112"
         y="232.12201"
         x="196.40382"
         style="font-size:36px;font-style:normal;font-variant:normal;font-weight:normal;font-stretch:normal;text-align:start;line-height:125%;text-anchor:start;fill:#d0d0d0;fill-opacity:0.94117599;stroke:none;stroke-width:1px;stroke-linecap:butt;stroke-linejoin:miter;stroke-opacity:1;font-family:Nimbus Sans L"
         xml:space="preserve"><tspan
           y="232.12201"
           x="196.40382"
           id="tspan4114"
           sodipodi:role="line">1</tspan></text>
      <text
         xml:space="preserve"
         style="font-size:36px;font-style:normal;font-variant:normal;font-weight:normal;font-stretch:normal;text-align:start;line-height:125%;text-anchor:start;fill:#d0d0d0;fill-opacity:0.94117599;stroke:none;stroke-width:1px;stroke-linecap:butt;stroke-linejoin:miter;stroke-opacity:1;font-family:Nimbus Sans L"
         x="179.46416"
         y="271.01288"
         id="text4116"
         sodipodi:linespacing="125%"><tspan
           sodipodi:role="line"
           id="tspan4118"
           x="179.46416"
           y="271.01288">2</tspan></text>
      <text
         sodipodi:linespacing="125%"
         id="text4120"
         y="232.12201"
         x="96.69619"
         style="font-size:36px;font-style:normal;font-variant:normal;font-weight:normal;font-stretch:normal;text-align:start;line-height:125%;text-anchor:start;fill:#d0d0d0;fill-opacity:0.94117599;stroke:none;stroke-width:1px;stroke-linecap:butt;stroke-linejoin:miter;stroke-opacity:1;font-family:Nimbus Sans L"
         xml:space="preserve"><tspan
           y="232.12201"
           x="96.69619"
           id="tspan4122"
           sodipodi:role="line">5</tspan></text>
      <text
         xml:space="preserve"
         style="font-size:36px;font-style:normal;font-variant:normal;font-weight:normal;font-stretch:normal;text-align:start;line-height:125%;text-anchor:start;fill:#d0d0d0;fill-opacity:0.94117599;stroke:none;stroke-width:1px;stroke-linecap:butt;stroke-linejoin:miter;stroke-opacity:1;font-family:Nimbus Sans L"
         x="111.61186"
         y="271.01288"
         id="text4124"
         sodipodi:linespacing="125%"><tspan
           sodipodi:role="line"
           id="tspan4126"
           x="111.61186"
           y="271.01288">4</tspan></text>
    </g>
  </g>
</svg>
