<?xml version="1.0" encoding="UTF-8" standalone="no"?><!DOCTYPE svg PUBLIC "-//W3C//DTD SVG 1.1//EN" "http://www.w3.org/Graphics/SVG/1.1/DTD/svg11.dtd"><svg width="100%" height="100%" viewBox="0 0 1000 1000" version="1.1" xmlns="http://www.w3.org/2000/svg" xmlns:xlink="http://www.w3.org/1999/xlink" xml:space="preserve" xmlns:serif="http://www.serif.com/" style="fill-rule:evenodd;clip-rule:evenodd;stroke-linejoin:round;stroke-miterlimit:1.41421;"><g id="Layer1"><path d="M312.754,382.591l84.432,0c11.779,-92.581 40.993,-172.114 120.03,-214.362c128.253,121.546 89.028,296.268 24.228,455.02l55.496,51.339c106.352,-186.068 160.564,-436.782 -79.724,-619.562c-117.161,59.705 -193.424,160.705 -204.462,327.565Z" style="fill:#553db8;"/><path d="M457.113,781.192l-42.216,-73.121c-86.066,36.09 -169.551,50.557 -245.657,3.232c41.135,-171.843 212.062,-225.234 381.945,-248.492l16.713,-73.73c-214.316,0.93 -458.547,79.339 -496.695,378.823c110.287,71.613 235.887,87.159 385.91,13.288Z" style="fill:#7a62dd;"/><path d="M730.132,456.873l-42.216,73.12c74.288,56.491 128.559,121.557 125.628,211.129c-169.388,50.297 -301.09,-71.033 -406.173,-206.527l-72.208,22.391c107.963,185.137 297.982,357.444 576.417,240.738c6.875,-131.317 -42.461,-247.863 -181.448,-340.851Z" style="fill:#544882;"/></g></svg>